<svg xmlns="http://www.w3.org/2000/svg" viewBox="0 0 267 95" data-v-d3f97b9e=""><!----><!----><!----><g id="b666520a-528d-4499-aa32-f994ecf19b5a" fill="white" transform="matrix(4.83092, 0, 0, 4.83092, 102.789, -1.10788)" data-v-d3f97b9e=""><path d="M 10.05 8.81 C 10.05 7.31 9.59 6.09 8.68 5.17 C 7.78 4.24 6.59 3.79 5.11 3.79 L 0.48 3.79 L 0.48 4.38 C 0.48 4.52 0.56 4.62 0.7 4.65 C 0.78 4.68 1.04 4.73 1.48 4.82 L 1.48 12.81 L 0.7 12.96 C 0.56 12.99 0.48 13.09 0.48 13.23 L 0.48 13.82 L 5.11 13.82 C 6.59 13.82 7.77 13.37 8.68 12.45 C 9.11 12 9.45 11.48 9.69 10.86 C 9.93 10.25 10.05 9.56 10.05 8.81 Z M 8.65 8.81 C 8.65 10.04 8.34 10.99 7.7 11.69 C 7.06 12.39 6.2 12.73 5.11 12.73 L 2.86 12.73 L 2.86 4.89 L 5.11 4.89 C 6.2 4.89 7.07 5.22 7.7 5.92 C 8.01 6.26 8.23 6.68 8.4 7.15 C 8.57 7.63 8.65 8.19 8.65 8.81 Z M 17.01 12.95 C 16.93 12.92 16.51 12.84 16.31 12.8 L 16.31 9.25 C 16.31 8.86 16.27 8.5 16.16 8.16 C 16.04 7.83 15.89 7.55 15.68 7.32 C 15.47 7.1 15.22 6.93 14.91 6.79 C 14.6 6.65 14.24 6.59 13.85 6.59 C 13.29 6.59 12.78 6.68 12.33 6.87 C 11.89 7.07 11.47 7.34 11.07 7.71 L 11.3 8.11 C 11.33 8.16 11.38 8.23 11.44 8.27 C 11.49 8.32 11.58 8.33 11.66 8.33 C 11.77 8.33 11.87 8.3 11.98 8.22 C 12.1 8.13 12.24 8.06 12.39 7.97 C 12.54 7.87 12.71 7.8 12.92 7.71 C 13.13 7.63 13.38 7.59 13.69 7.59 C 14.15 7.59 14.5 7.74 14.74 8.02 C 14.98 8.3 15.11 8.72 15.11 9.28 L 15.11 9.83 C 14.29 9.83 13.62 9.88 13.06 10.01 C 12.5 10.14 12.05 10.32 11.72 10.51 C 11.38 10.71 11.12 10.96 10.96 11.21 C 10.81 11.47 10.74 11.75 10.74 12.03 C 10.74 12.35 10.78 12.63 10.89 12.87 C 11 13.1 11.14 13.3 11.31 13.45 C 11.48 13.61 11.7 13.71 11.94 13.79 C 12.18 13.87 12.42 13.92 12.7 13.92 C 12.98 13.92 13.23 13.9 13.45 13.85 C 13.68 13.79 13.87 13.72 14.07 13.64 C 14.27 13.55 14.46 13.44 14.63 13.3 C 14.8 13.16 14.99 13.01 15.19 12.84 L 15.33 13.51 C 15.36 13.62 15.39 13.71 15.47 13.73 C 15.55 13.76 15.65 13.79 15.76 13.79 L 16.21 13.79 L 16.31 13.79 L 17.22 13.79 L 17.22 13.19 C 17.22 13.06 17.14 12.95 17.01 12.92 Z M 15.08 12.08 C 14.94 12.22 14.8 12.36 14.66 12.47 C 14.52 12.59 14.36 12.7 14.2 12.78 C 14.03 12.87 13.86 12.92 13.68 12.96 C 13.5 13.01 13.31 13.03 13.09 13.03 C 12.92 13.03 12.77 13.01 12.63 12.96 C 12.49 12.92 12.38 12.87 12.26 12.78 C 12.15 12.7 12.07 12.59 12.01 12.45 C 11.96 12.31 11.91 12.17 11.91 11.97 C 11.91 11.77 11.97 11.61 12.08 11.44 C 12.19 11.27 12.39 11.13 12.64 11.02 C 12.89 10.91 13.23 10.79 13.62 10.72 C 14.01 10.65 14.5 10.63 15.08 10.63 Z M 23.49 4 C 23.02 3.86 22.48 3.79 21.84 3.79 L 18.06 3.79 L 18.06 4.38 C 18.06 4.52 18.13 4.62 18.27 4.65 C 18.35 4.68 18.62 4.73 19.07 4.82 L 19.07 12.81 L 18.27 12.96 C 18.13 12.99 18.06 13.09 18.06 13.23 L 18.06 13.82 L 21.42 13.82 L 21.42 13.23 C 21.42 13.09 21.36 12.99 21.22 12.96 C 20.78 12.88 20.5 12.82 20.41 12.8 L 20.41 10.07 L 21.84 10.07 C 23.02 10.07 23.94 9.76 24.61 9.17 C 25.26 8.61 25.56 7.85 25.56 6.9 C 25.56 5.42 24.88 4.44 23.49 3.99 Z M 24.22 6.89 C 24.22 7.53 24.01 8.04 23.59 8.41 C 23.17 8.79 22.6 8.97 21.84 8.97 L 20.41 8.97 L 20.41 4.86 L 21.84 4.86 C 22.64 4.86 23.23 5.03 23.62 5.39 C 24.01 5.75 24.21 6.23 24.21 6.87 Z M 33.42 6.73 L 30.79 6.73 L 30.79 7.32 C 30.79 7.46 30.84 7.56 30.98 7.59 C 31.12 7.62 31.37 7.66 31.75 7.74 L 30.23 11.44 C 30.17 11.58 30.09 11.8 30 12.08 C 29.95 11.86 29.9 11.63 29.82 11.44 L 28.24 7.74 C 28.69 7.66 28.94 7.6 29.02 7.57 C 29.16 7.55 29.23 7.46 29.23 7.32 L 29.23 6.72 L 26.05 6.72 L 26.05 7.32 C 26.05 7.46 26.12 7.55 26.26 7.57 C 26.35 7.6 26.56 7.66 26.89 7.71 L 29.39 13.4 L 28.1 16.21 L 29.02 16.21 C 29.22 16.21 29.39 16.1 29.47 15.9 L 32.98 7.73 C 33.01 7.73 33.14 7.7 33.33 7.66 C 33.53 7.62 33.67 7.57 33.71 7.57 C 33.85 7.55 33.92 7.46 33.92 7.32 L 33.92 6.72 Z" /></g><!----><g id="326206eb-8fa0-4cb4-bc51-1ee0fac21f67" fill="white" stroke="none" transform="matrix(1.02417, 0, 0, 1.02417, -7.74745, -2.27438)" data-v-d3f97b9e=""><path d="M 87.4 24.4 L 51.6 3.7 c -1.6 -0.9 -3.6 -0.9 -5.2 0 L 10.1 24.6 h 0.4 c -1.7 0.9 -2.5 2.7 -2.5 4.7 v 39.5 c 0 1.9 0.5 3.6 2.2 4.5 l 36.4 21.2 c 0.8 0.5 1.6 0.7 2.5 0.7 h 0.2 c 0.9 0 1.8 -0.2 2.6 -0.7 l 36.6 -21.2 c 1.6 -0.9 2.6 -2.7 2.6 -4.5 V 29.3 c -0.1 -2.3 -1.6 -4.2 -3.7 -4.9 Z M 49 14.2 l 25.8 14.9 L 49 44 L 23.2 29.1 L 49 14.2 Z M 18 65.8 V 37.9 L 43 53 v 28 L 18 65.8 Z M 53 81 V 52.9 l 28 -15.1 v 28.1 L 53 81 Z" /></g><!----></svg>