<svg xmlns="http://www.w3.org/2000/svg" viewBox="0 0 300 300" data-v-29081953=""><!----><defs data-v-29081953=""><linearGradient id="4baa5636-d96c-4d38-abee-e01f0b91d846" gradientTransform="rotate(25)" x1="0%" y1="0%" x2="100%" y2="0%" data-v-29081953=""><stop stop-color="rgb(0, 118, 221)" stop-opacity="1" offset="0%" data-v-29081953="" /><stop stop-color="rgb(230, 0, 233)" stop-opacity="1" offset="100%" data-v-29081953="" /></linearGradient></defs><rect class="logo-background-square" fill="url(#4baa5636-d96c-4d38-abee-e01f0b91d846)" x="0" y="0" width="300px" height="300px" data-v-29081953="" /><!----><defs data-v-29081953=""><!----></defs><g id="3a7706fb-7d5d-4f93-9c3a-5be58dec9932" fill="#ffffff" stroke="none" transform="matrix(2.38676, 0, 0, 2.38676, 31.7358, 32.78)" data-v-29081953=""><path d="M 87.4 24.4 L 51.6 3.7 c -1.6 -0.9 -3.6 -0.9 -5.2 0 L 10.1 24.6 h 0.4 c -1.7 0.9 -2.5 2.7 -2.5 4.7 v 39.5 c 0 1.9 0.5 3.6 2.2 4.5 l 36.4 21.2 c 0.8 0.5 1.6 0.7 2.5 0.7 h 0.2 c 0.9 0 1.8 -0.2 2.6 -0.7 l 36.6 -21.2 c 1.6 -0.9 2.6 -2.7 2.6 -4.5 V 29.3 c -0.1 -2.3 -1.6 -4.2 -3.7 -4.9 Z M 49 14.2 l 25.8 14.9 L 49 44 L 23.2 29.1 L 49 14.2 Z M 18 65.8 V 37.9 L 43 53 v 28 L 18 65.8 Z M 53 81 V 52.9 l 28 -15.1 v 28.1 L 53 81 Z" /></g><!----></svg>